<svg id="Layer_1" data-name="Layer 1" xmlns="http://www.w3.org/2000/svg" viewBox="0 0 2471.56 2370.53"><defs><style>.cls-1{fill:#0dbbff;}.cls-2{fill:#000072;}.cls-3{fill:#ff9331;}.cls-4{opacity:0.2;}.cls-5{opacity:0.6;}.cls-6{fill:#fff;}.cls-7{fill:#aa400b;}.cls-8{fill:#ff7da1;}.cls-9{opacity:0.21;}.cls-10{fill:#ff4878;}.cls-11{fill:none;stroke:#000072;stroke-miterlimit:10;stroke-width:5.07px;}</style></defs><circle class="cls-1" cx="1278.38" cy="1185.28" r="1164.99"/><path class="cls-2" d="M2044.08,3185.26q-14.07,0-28.07-.31c-4.58-.1-9.1-.26-13.66-.47-21.72-.7-44.16-2.09-66.43-4.12-308.17-27.84-589.39-173.08-791.84-409A1185.86,1185.86,0,0,1,858.81,2000c0-316.6,123.29-614.25,347.16-838.11s521.51-347.16,838.11-347.16S2658.32,938,2882.19,1161.89,3229.34,1683.4,3229.34,2000c0,232.12-67,456.81-193.86,649.77a1189,1189,0,0,1-109.24,141.77c-8.28,9.25-16.83,18.48-25.4,27.4-23,24.07-47.34,47.49-72.34,69.57A1186.75,1186.75,0,0,1,2504,3092.71a1172.29,1172.29,0,0,1-230.91,70.39c-19.11,3.8-38.63,7.13-58,9.9A1198.25,1198.25,0,0,1,2044.08,3185.26Zm0-2330c-631.21,0-1144.73,513.52-1144.73,1144.73a1145.28,1145.28,0,0,0,275.5,745c195.53,227.83,467.12,368.11,764.74,395,21.49,2,43.14,3.3,64.35,4,4.53.21,8.73.36,13,.45a1172,1172,0,0,0,192.44-11.55c18.65-2.66,37.44-5.88,55.9-9.55a1132,1132,0,0,0,223-68,1146,1146,0,0,0,313.4-197.24c24.15-21.32,47.67-43.94,69.91-67.22,8.27-8.61,16.5-17.49,24.48-26.42a1150.17,1150.17,0,0,0,105.55-137c122.47-186.33,187.2-403.32,187.2-627.51C3188.8,1368.79,2675.28,855.27,2044.08,855.27Z" transform="translate(-765.69 -814.73)"/><path class="cls-3" d="M2106.51,2835.31c-6.44,123.54-38.41,238.82-103.23,328.92q-33-1.07-65.52-4.05c-310.73-28.08-586.25-178.22-778.3-402,8.61-45.76,19.56-91.77,30-137.88,7.9-34.87,15.51-69.83,21.59-104.85,12.77-73.22,18.85-146.6,7-219.82,211.77-86.6,445.63-140.93,682.33-160.18,25.79,34.86,49.86,73.58,71.85,115.13C2062.22,2420.69,2116.74,2638.44,2106.51,2835.31Z" transform="translate(-765.69 -814.73)"/><g class="cls-4"><path class="cls-2" d="M1424.31,2738a63.06,63.06,0,0,0,48.24-11.27,27.08,27.08,0,0,1,36.26,4.5c90.28,104,207.68,48.93,179-102.09,167.51,256.08-151,373.4-208.07,137.62-20.46,11-46.15,5-64.24-9C1406.21,2750.48,1412.74,2735.8,1424.31,2738Z" transform="translate(-765.69 -814.73)"/></g><g class="cls-4"><path class="cls-2" d="M1972.22,2250.58c-63.29,32.13-130.13,55.23-198.89,67.6.55,66.94-41.71,135.4-104.44,163.62s-142,14.5-191.55-33.24a564.67,564.67,0,0,1-266.29,66.89c12.77-73.22,18.85-146.6,7-219.82,211.77-86.6,445.63-140.93,682.33-160.18C1926.16,2170.31,1950.23,2209,1972.22,2250.58Z" transform="translate(-765.69 -814.73)"/></g><path class="cls-2" d="M2003.29,3184.5h-.66c-22-.71-44.44-2.1-66.71-4.13-308.17-27.84-589.39-173.08-791.84-409a20.26,20.26,0,0,1-4.54-17c7-37.35,15.72-75.32,24.12-112,25.9-113.22,52.68-230.3,34.37-343.52a20.26,20.26,0,0,1,12.34-22c210.92-86.26,449-142.15,688.35-161.63a20.29,20.29,0,0,1,18,8.16c206.23,278.93,299.28,779.85,103.07,1052.67A20.28,20.28,0,0,1,2003.29,3184.5Zm-822.07-432.15c195,223.5,464,361,758.37,387.64,17.81,1.62,35.73,2.82,53.42,3.57,81.27-119.28,111.55-293.3,85.27-491.65-23.87-180.2-93.73-364.36-187.59-495.31-226,19.49-450.19,71.86-650.32,151.86,14.8,115.65-11.61,231.12-37.19,343C1195.59,2684.6,1187.77,2718.82,1181.22,2752.35Z" transform="translate(-765.69 -814.73)"/><path class="cls-3" d="M1835.45,2243.38c-128,37-260.21,32.59-260.21,32.59s-56.75,51.13-136.82,97.65c-148,86-375.6,156.17-470.56-142.65-39.22-123.44-30.76-269.49,18.14-401.44,58.78-158.86,176.25-297.2,339.62-350.92,118.63-39,243-27.31,355.53,17.89,171.33,68.71,315.34,215.06,369.87,378.43C2126.62,2101.5,1983.88,2200.36,1835.45,2243.38Z" transform="translate(-765.69 -814.73)"/><g class="cls-5"><path class="cls-6" d="M2034.5,1827.05c-70.08-124.21-190.23-229.66-328-284.94-112.55-45.21-236.9-56.86-355.53-17.89-163.38,53.71-280.84,192-339.62,350.91-48.9,132-57.36,278-18.14,401.44q7.83,24.7,16.92,46.17c-16-26.81-30.2-58.83-42.26-96.84-39.22-123.44-30.76-269.48,18.14-401.44,58.78-158.86,176.25-297.2,339.62-350.92,118.63-39,243-27.31,355.53,17.89C1837.38,1554.06,1970.85,1681.26,2034.5,1827.05Z" transform="translate(-765.69 -814.73)"/></g><g class="cls-4"><path class="cls-2" d="M1835.45,2243.38c-128,37-260.21,32.59-260.21,32.59s-56.75,51.13-136.82,97.65c-148,86-375.6,156.17-470.56-142.65-39.22-123.44-30.76-269.49,18.14-401.44-26.7,203.61-.86,430.07,147.41,536.23,193.17,88.12,346.77-142,521.19-182.07,88.47-19.76,203,.91,265.78-78.29,88.12-151.31-97.8-432.51-239.23-608.9,171.33,68.71,315.34,215.06,369.87,378.43C2126.62,2101.5,1983.88,2200.36,1835.45,2243.38Z" transform="translate(-765.69 -814.73)"/></g><path class="cls-2" d="M1208.72,2468.07c-30,0-59.87-4.69-88.5-15.74-78.11-30.14-135.87-102.55-171.68-215.22-43.64-137.34-30.52-307.69,35.1-455.7,70.85-159.82,190.06-274.2,335.65-322.05,145.38-47.79,307.87-25.94,457.53,61.51,138,80.64,247.67,210.59,293.43,347.64,30.86,92.48,29.11,172.53-5.21,237.92-37.59,71.61-112.94,124.24-224,156.42h0c-112.93,32.69-227.22,33.88-258.41,33.54a944,944,0,0,1-134.06,94.75C1382.87,2429.35,1295,2468.07,1208.72,2468.07ZM1474,1475.38a453.18,453.18,0,0,0-142,22.49c-293.59,96.5-426.41,470-344.77,727,31.9,100.37,81.57,164.19,147.64,189.68,95.83,37,212.46-11.35,293.42-58.42,77.35-44.94,132.88-94.68,133.43-95.18a20.32,20.32,0,0,1,14.25-5.2c1.28.05,130.68,3.86,253.89-31.8h0c100-29,167.08-74.85,199.34-136.32,29-55.25,29.88-124.63,2.65-206.24C1960.21,1667,1720.58,1475.38,1474,1475.38Zm361.5,768h0Z" transform="translate(-765.69 -814.73)"/><path class="cls-7" d="M2116.13,1653.39c-1.62,45.5-27,118.83-87.31,181.46-17.17,17.79-46.36,15.66-61.26-4.11-93.14-123.18-170.42-207-310.73-331.61-3.7-3.29-7.4-6.58-11.2-9.93-1.12-1-2.23-1.92-3.35-2.94,1-.66,2-1.32,3.09-2,83.82-53.52,194.49-72.72,271.62-36.49,98.4,46.22,187.24,149.29,196.21,177.71C2115.48,1632.76,2116.49,1642.24,2116.13,1653.39Z" transform="translate(-765.69 -814.73)"/><g class="cls-5"><path class="cls-6" d="M2116.13,1653.39q-55.78-42.27-112.74-83c-40.34-28.83-81.89-57.56-129.22-72.31-69.88-21.74-144.93-11.15-217.34,1.06-3.45.56-6.9,1.17-10.29,1.73-.41-3.91-.76-7.81-.91-11.66-.16-1.67-.21-3.29-.26-4.91,83.82-53.52,194.49-72.72,271.62-36.49,98.4,46.22,187.24,149.29,196.21,177.71C2115.48,1632.76,2116.49,1642.24,2116.13,1653.39Z" transform="translate(-765.69 -814.73)"/></g><path class="cls-2" d="M2000.14,1867.25c-1.21,0-2.43,0-3.65-.11a61.06,61.06,0,0,1-45.11-24.15c-98.28-130-176.64-213-322.49-341.5a20.27,20.27,0,0,1,2.3-32.17c94.8-62,213.11-78,294.43-39.86,99.72,46.84,195.16,152.69,206.9,190,15.64,49.67-14,151.52-89.08,229.47A60,60,0,0,1,2000.14,1867.25Zm-323.69-377.78c133.61,119.11,213.14,204.54,307.27,329.07a20.57,20.57,0,0,0,15.2,8.13,19.42,19.42,0,0,0,15.33-5.91c69.84-72.48,88.68-160.34,79.6-189.16-7.21-22.92-92.16-121.61-185.47-165.45C1846.63,1437.15,1754.42,1447.09,1676.45,1489.47Z" transform="translate(-765.69 -814.73)"/><path class="cls-7" d="M1842.8,2150.65c-8.31,30.35-27.52,57.87-53,77.53-128,37-219.67,25-219.67,25s-56.75,51.13-136.82,97.65c-63.49,6.79-134.18-19.56-160.33-81.63-6.49-15.36-10.24-32.89-10.44-52.65a186.34,186.34,0,0,1,1.62-25.65c25.39-193.92,348.29-282.3,499.35-197.22a218.31,218.31,0,0,1,34.81,24.63C1844.22,2058.47,1854.56,2107.42,1842.8,2150.65Z" transform="translate(-765.69 -814.73)"/><path class="cls-6" d="M3144.82,1941.16c-22.1,59.34-44.55,110.88-59.7,143-155.11-105.25-290.31-263.66-340.48-445.53,77.43-37.55,153.19-74.39,231.08-100.49,40.28-13.43,81.13-24,123-30.3C3282,1483.63,3215.2,1752.15,3144.82,1941.16Z" transform="translate(-765.69 -814.73)"/><path class="cls-2" d="M3093.36,2114.23l-19.6-13.29c-174.05-118.07-301.14-284.6-348.68-456.91l-4.48-16.27,17.58-8.52c119.53-57.94,232.42-112.67,357.52-131.43,51.75-6.84,90.07,6.52,114.26,39.66,94.65,129.66-85.62,521.13-106.49,565.34Zm-324.48-464.82c46.36,150.93,157.29,296.48,308,404.3,75.49-166.36,158.75-422.31,100.33-502.34-15-20.52-39.81-28.18-75.86-23.42C2987.13,1545.08,2880.75,1595.23,2768.88,1649.41Z" transform="translate(-765.69 -814.73)"/><path class="cls-8" d="M3047.24,1880.45c35.21-57.83,60.75-142.89,59.94-234.37a17.91,17.91,0,0,0-21.38-17.36c-65.61,13.28-128.29,41.73-183.16,82.27C2934.86,1778.69,2984.6,1838,3047.24,1880.45Z" transform="translate(-765.69 -814.73)"/><g class="cls-4"><path class="cls-2" d="M2106.51,2835.31c-6.44,123.54-38.41,238.82-103.23,328.92q-33-1.07-65.52-4.05c-310.73-28.08-586.25-178.22-778.3-402,8.61-45.76,19.56-91.77,30-137.88,26.86,70.28,58.27,138.64,105.1,197,64.15,80,163.78,139.2,264.16,125.67,63,40.69,142.14,51.53,216.53,41.5s144.83-39.42,211.41-74C2028.16,2888.87,2069.46,2864.09,2106.51,2835.31Z" transform="translate(-765.69 -814.73)"/></g><path class="cls-2" d="M3047.24,1899.34a18.87,18.87,0,0,1-10.6-3.26c-64.57-43.81-116.8-105-151-177a18.89,18.89,0,0,1,5.83-23.31c57.33-42.36,123.25-72,190.63-85.59a36.8,36.8,0,0,1,44,35.71c.78,88.55-22.07,177.62-62.7,244.35a18.87,18.87,0,0,1-16.13,9.07ZM2926.76,1717a406.91,406.91,0,0,0,114.38,135.83c30.19-57.84,47.6-132.9,47.17-205.34C3031.7,1659.13,2976.19,1683,2926.76,1717Z" transform="translate(-765.69 -814.73)"/><path class="cls-6" d="M2911.16,2778c-213.24,237.56-522.7,387-867.08,387q-53.74,0-106.32-4.81a486.5,486.5,0,0,1-40.33-133.68,480.93,480.93,0,0,1-5.38-58.93c-1.82-218.81,68.57-418.52,173.77-607.13,42.51-76.26,90.7-150.7,142.14-223.83,171.22,114.32,383.24,166.06,588.88,148.78-11,84.73-4.71,170.67,15.3,253.73q7.16,29.64,16.57,58.73A855.37,855.37,0,0,0,2911.16,2778Z" transform="translate(-765.69 -814.73)"/><path class="cls-6" d="M2501.92,1578.44c-104.34,132.82-270.75,216.83-435.19,250.07a1739,1739,0,0,1,2.28-178.82c11.2-174,53.31-379,185.82-301.67,33,20.07,63.6,43.43,92.68,69C2402.14,1465.13,2451.5,1521.23,2501.92,1578.44Z" transform="translate(-765.69 -814.73)"/><path class="cls-2" d="M2047.53,1853.05l-1-23.66c-1.94-43.85-15.41-430.53,108.63-505.47,22.1-13.36,59.12-23.05,109.94,6.6,97.37,59.09,171.74,143.43,250.48,232.72l12.76,14.46L2517.86,1591c-99.13,126.2-262.1,220-447.11,257.39Zm154-501.52a48.27,48.27,0,0,0-25.44,7.08c-74.74,45.17-94.44,282.08-90,444.94,159.53-36.89,299.49-117.6,389.26-224.56-73.08-82.78-143.18-160.3-231.06-213.64C2228.53,1356.14,2214.33,1351.53,2201.51,1351.53Z" transform="translate(-765.69 -814.73)"/><path class="cls-8" d="M2184.46,1703c-16.67-65.62-16.12-154.43,11.5-241.64a17.9,17.9,0,0,1,25.54-10.31c58.82,31.94,110.38,77.54,150.93,132.4C2321.76,1638.72,2256.82,1680.77,2184.46,1703Z" transform="translate(-765.69 -814.73)"/><path class="cls-2" d="M2184.46,1721.9a18.87,18.87,0,0,1-18.3-14.24c-19.25-75.72-14.94-167.57,11.79-252a36.8,36.8,0,0,1,52.56-21.21c60.41,32.81,114.74,80.45,157.11,137.77a18.89,18.89,0,0,1-1.27,24c-53.86,58.74-121.76,101.9-196.34,124.84A19.09,19.09,0,0,1,2184.46,1721.9Zm29.13-253.64c-21.68,69.13-27.07,146-15.19,210.14a406.89,406.89,0,0,0,149.22-96.27C2310.33,1535.16,2264.29,1496,2213.59,1468.26Z" transform="translate(-765.69 -814.73)"/><path class="cls-8" d="M2625.92,2964.37a431,431,0,0,1-4.41,47.64,1163.3,1163.3,0,0,1-125.37,62,1148.63,1148.63,0,0,1-226.92,69.17l-57,9.73c-13-20.37-21.38-39.22-24.93-50a558.68,558.68,0,0,1-22.5-97c-17.13-120.71,4-246.94,61.32-354.67,29.09-54.58,72-107.89,132.16-122,63-14.7,129.87,19,170.67,69.32s60.25,114.27,74.69,177.41c3.14,13.68,6.08,27.46,8.77,41.25C2621.86,2865.86,2627.74,2915.07,2625.92,2964.37Z" transform="translate(-765.69 -814.73)"/><path class="cls-6" d="M2815.08,2873.31A1165.75,1165.75,0,0,1,2496.14,3074c6-69.07,32.74-146.4,54-180.75a320.62,320.62,0,0,1,62.28-76c33.85-30.26,74.13-52.86,118.12-63.65C2793.6,2772.72,2816.8,2818.18,2815.08,2873.31Z" transform="translate(-765.69 -814.73)"/><path class="cls-6" d="M2269.22,3143.2c-25.08-52.75-61-101.75-104.39-137.22-60-49-134.49-72.11-215-43.33-4.2,70.34,22,142.24,66.59,202q13.76.3,27.62.3a1172.06,1172.06,0,0,0,168.18-12.06Z" transform="translate(-765.69 -814.73)"/><g class="cls-4"><path class="cls-2" d="M2911.16,2778c-213.24,237.56-522.7,387-867.08,387q-53.74,0-106.32-4.81a486.5,486.5,0,0,1-40.33-133.68c33.09,40.69,86.75,64.81,140.67,64.1,57.31-.76,113.56-29.59,147.61-75.6,47.13,47.43,117.77,70.33,183.74,59.49s125.57-55.09,155-115.08a51.72,51.72,0,0,0-5.83-2.23c1.72.3,3.44.55,5.17.86,90.5,5.78,181.41-35.32,239.33-105.05s81.53-166.61,62.33-255.24c1.06,0,2.13.05,3.24.1A855.37,855.37,0,0,0,2911.16,2778Z" transform="translate(-765.69 -814.73)"/></g><path class="cls-2" d="M2044.08,3185.26c-36.13,0-72.52-1.65-108.16-4.9l-11.59-1.05-4.94-10.56a506.76,506.76,0,0,1-47.59-200.58c-2.87-340.4,169.27-629.41,319.57-843.21l11.38-16.19,16.46,11c166.29,111,370.84,162.69,575.93,145.44l25-2.1-3.22,24.9c-20.23,156.72,19.39,327,111.57,479.52l7.76,12.85-10,11.17C2701.65,3041.75,2380.11,3185.26,2044.08,3185.26ZM1951.34,3141c30.65,2.47,61.79,3.72,92.74,3.72,319.58,0,625.6-134.4,842-369.27-86.74-149-126.11-313.78-112-468.11-199.14,11.65-396.64-38.7-560.71-143-144,207.15-303.7,483-301,803.1A465.71,465.71,0,0,0,1951.34,3141Z" transform="translate(-765.69 -814.73)"/><path class="cls-6" d="M2886.23,2804.9c37-208.72-32.23-321,32.38-357.66,66.89-38,106.62,75.41,99.93,191.4" transform="translate(-765.69 -814.73)"/><g class="cls-4"><path class="cls-2" d="M2501.92,1578.44c-104.34,132.82-270.75,216.83-435.19,250.07a1739,1739,0,0,1,2.28-178.82A1073.81,1073.81,0,0,1,2245,1506.38c27.51-17.89,56.09-34.81,79.05-58.28a148.1,148.1,0,0,0,23.51-31.06C2402.14,1465.13,2451.5,1521.23,2501.92,1578.44Z" transform="translate(-765.69 -814.73)"/></g><g class="cls-4"><path class="cls-2" d="M2888.26,2531.47c22.6,45.32,81.29,66.54,127.5,45.64q4.14,24.57,8.3,49A523.41,523.41,0,0,1,2890.59,2787C2904.54,2704.09,2903.46,2618.65,2888.26,2531.47Z" transform="translate(-765.69 -814.73)"/></g><g class="cls-4"><path class="cls-2" d="M3144.82,1941.16c-22.1,59.34-44.55,110.88-59.7,143-155.11-105.25-290.31-263.66-340.48-445.53,77.43-37.55,153.19-74.39,231.08-100.49a159.73,159.73,0,0,0,.51,60.51c9.17,45.76,34.05,86.5,57.41,126.83C3074.18,1795.63,3111.27,1867.74,3144.82,1941.16Z" transform="translate(-765.69 -814.73)"/></g><path class="cls-2" d="M2886.22,2823.79a18.89,18.89,0,0,1-18.59-22.19c17-96,10.91-172.49,6.44-228.31-5.46-68-9.4-117.18,35.22-142.48,22.73-12.91,46.31-13.17,66.37-.7,49.23,30.58,66.48,127.32,61.74,209.62a18.87,18.87,0,0,1-3.07,9.28,1188.21,1188.21,0,0,1-109.12,141.61c-8.27,9.24-16.81,18.46-25.36,27.37A18.87,18.87,0,0,1,2886.22,2823.79Zm57.87-365.16c-4.34,0-9.62,1.33-16.15,5-22.73,12.89-21.4,42-16.22,106.6,3.66,45.63,8.39,104.54,1.45,176.84a1151,1151,0,0,0,86.77-114.58c4-87.06-19-154.69-44.21-170.33A21.36,21.36,0,0,0,2944.09,2458.63Zm74.45,180h0Z" transform="translate(-765.69 -814.73)"/><g class="cls-4"><path class="cls-2" d="M2812.14,2539.12c-145.08,20.37-293.86,19.4-435.39-17.49-113.91-29.69-222.86-83.91-310.93-161.19,42.51-76.26,90.7-150.7,142.14-223.83,171.22,114.32,383.24,166.06,588.88,148.78C2785.89,2370.12,2792.13,2456.06,2812.14,2539.12Z" transform="translate(-765.69 -814.73)"/></g><path class="cls-6" d="M3113.34,2258.09c-388.94,380.49-1056,207.52-1208.53-289.23-10.72-34.9-.55-73,26.93-97,49.51-43.33,96.85-91.6,144.92-139,128.46-126.89,261.93-247.74,455.31-251.9,325.42.91,441.82,200.47,526.45,431.49,28.14,76.85,52.79,157.22,80.46,234.88A105.4,105.4,0,0,1,3113.34,2258.09Z" transform="translate(-765.69 -814.73)"/><g class="cls-9"><path class="cls-2" d="M3161.08,2206.9C2767,2669.8,2008,2472.89,1889,1907.41c65.47-51.43,126-113.71,187.7-174.62-21.24,40.59-43.78,80.28-66.75,118.62a164.35,164.35,0,0,0,1.27,170.56c99.51,161.5,266,281.73,451.92,321.19,186.27,39.53,387.64-2.93,543.79-108.41a163.72,163.72,0,0,0,71-154.54q-9.75-83.93-19.46-167.83C3093.84,2009.12,3123.74,2111.43,3161.08,2206.9Z" transform="translate(-765.69 -814.73)"/></g><path class="cls-2" d="M2604.26,2485.27a788.14,788.14,0,0,1-196.63-25.14c-255.62-65.81-451.35-248.94-523.57-489.87A108.17,108.17,0,0,1,1916.79,1858c40.85-35.61,81.14-75.63,120.11-114.33,137.83-136.87,280.35-278.39,494.62-283,399.44,1.08,496.34,291.8,590,572.95,11.83,35.5,24.07,72.21,36.71,107.67A124.87,124.87,0,0,1,3128.16,2272C2986.43,2410.94,2799.47,2485.27,2604.26,2485.27Zm-72.35-984.11c-197.59,4.28-334.26,140-466.44,271.26-39.43,39.15-80.2,79.64-122,116.12a67.54,67.54,0,0,0-20.54,70.08c68.11,227.21,253.1,400,494.85,462.25a747.28,747.28,0,0,0,186.39,23.83c184.78,0,361.62-70.26,495.66-201.69h0a84.23,84.23,0,0,0,20.3-88.15c-12.79-35.85-25.09-72.76-37-108.46C2989.82,1766.52,2901.71,1502.17,2531.91,1501.16Z" transform="translate(-765.69 -814.73)"/><path class="cls-2" d="M2598.65,2132.51q-3.8,13.3-8.05,25.13c-39.58,111.84-102.06,123.8-125.52,49.05-7.6-24.12-11.15-57.26-8.52-99,29.65,2.53,63.19-12.47,75.86-45.3C2535.46,2100,2564.19,2124.45,2598.65,2132.51Z" transform="translate(-765.69 -814.73)"/><path class="cls-2" d="M2497.35,2018c2.33-14.42,21.05-12.37,44-8.68s41.33,7.63,39,22.05-24.51,33.87-47.41,30.18S2495,2032.45,2497.35,2018Z" transform="translate(-765.69 -814.73)"/><path class="cls-10" d="M2590.6,2157.64c-39.58,111.84-102.06,123.8-125.52,49.05,9.88-37.24,41.6-64.5,79.2-64.5A77.35,77.35,0,0,1,2590.6,2157.64Z" transform="translate(-765.69 -814.73)"/><path class="cls-2" d="M2695.7,2112.14c-8,17.72-24.74,31-43.44,38a105.32,105.32,0,0,1-59.88,3.53,106.71,106.71,0,0,1-53.92-31.06,99.74,99.74,0,0,1-26.53-58.53l39.67,5.75a91.93,91.93,0,0,1-36.83,45.76,93.13,93.13,0,0,1-56.14,14.25,84.46,84.46,0,0,1-28.94-7.29,63.77,63.77,0,0,1-24.47-18.85,52.59,52.59,0,0,1-11-28.26,45.33,45.33,0,0,1,6.2-26.8,3.82,3.82,0,0,1,6.65.22l.09.19c3.86,7.54,7.52,13.7,11.53,18.45a49.19,49.19,0,0,0,12.42,10.64,55.66,55.66,0,0,0,29.47,7.77A66.14,66.14,0,0,0,2492,2078a47.28,47.28,0,0,0,21.2-23l.5-1.16a20.43,20.43,0,0,1,39.18,6.9c.71,12.64,5.81,24.22,15.14,32.69s21.72,13.93,34.79,17.44a143.94,143.94,0,0,0,41.62,4.57,169.51,169.51,0,0,0,46.66-8.26l.11,0a3.68,3.68,0,0,1,4.46,5Z" transform="translate(-765.69 -814.73)"/><path class="cls-2" d="M2510.43,2274.28h-1c-28.38-.51-51.59-22.92-63.7-61.51-8.91-28.26-12.08-64.06-9.41-106.36a20.27,20.27,0,0,1,22-18.92c20,1.72,45.7-7.71,55.22-32.4a20.27,20.27,0,0,1,39.12,5.66c3.07,38,39.53,49.43,50.64,52a20.27,20.27,0,0,1,14.87,25.31c-2.62,9.17-5.47,18.06-8.47,26.41C2585,2234.32,2548.83,2274.28,2510.43,2274.28ZM2476,2127.39c-.53,29,2.31,54,8.37,73.21,6.37,20.28,16.23,33,25.76,33.14h.24c15.34,0,40.9-25.85,61.08-82.87q.95-2.64,1.86-5.34c-20.67-8.78-37.07-22.63-47.71-40A96.34,96.34,0,0,1,2476,2127.39Z" transform="translate(-765.69 -814.73)"/><path class="cls-11" d="M2218.56,1982.17" transform="translate(-765.69 -814.73)"/><path class="cls-6" d="M2687.27,2635.37c-99.19-199.93-317.74-97.91-323.17,98.52-5.39,194.82,223.24,149.41,208.44-13.63" transform="translate(-765.69 -814.73)"/><path class="cls-2" d="M2408.11,2856.23c-2.9-6.62-4.06-13.72-4.53-20.8a93.08,93.08,0,0,1,1.38-21.27c2.36-14,6.87-27.61,14.66-39.5a2.05,2.05,0,0,1,2.85-.6,2.08,2.08,0,0,1,.91,1.44c2,13.76,3.61,26.43,5.91,38.73,1.08,6.14,2.53,12.13,3.4,18.11s1.87,11.88,1.78,18.11v.44a13.76,13.76,0,0,1-26.35,5.34Z" transform="translate(-765.69 -814.73)"/><path class="cls-2" d="M2468.34,2860.16a55.17,55.17,0,0,1-3.51-19.52,90,90,0,0,1,2.11-19.76c2.8-13,7.43-25.52,15.17-36.43a2.08,2.08,0,0,1,2.9-.5,2.13,2.13,0,0,1,.85,1.39c2.06,12.93,3.44,24.79,5.45,36.32.94,5.76,2.08,11.38,2.78,17a84.56,84.56,0,0,1,.85,17l0,.46a13.79,13.79,0,0,1-26.56,4.1Z" transform="translate(-765.69 -814.73)"/><path class="cls-6" d="M2070.59,2628.7c38.14-72.89,131.11-164.48,205.76-109.13,70.06,51.95,95.31,164.44,78.56,246.45-29,142.12-227.94,121.8-197.48-64.74" transform="translate(-765.69 -814.73)"/><g class="cls-4"><path class="cls-2" d="M2672.05,2722.56c4.22-8.19-4.7-16.86-12.9-12.66a50.8,50.8,0,0,1-37,4c-16-4.3-29.54-14.74-39.66-28-5.17-6.79-16-3.78-17.4,4.64-4.63,28.33-12.59,56-31.55,77-24.39,26.91-65,37.16-99.76,26.51s-62.23-41-72.1-76.21c3.33,42.11-9,85.85,4.1,126,12.91,39.73,50.93,69.27,92.34,74.79s84.51-11.91,112.71-42.74S2612.46,2802,2610,2759.9c19.11,5.76,40.07-5.27,52-21.25A113.56,113.56,0,0,0,2672.05,2722.56Z" transform="translate(-765.69 -814.73)"/></g><g class="cls-4"><path class="cls-2" d="M2104.16,2677.49c17.57,5.56,34.92,1.49,50.84-10.42,7-5.22,17-.25,17.47,8.46,13.07,229.75,197.36,126.48,176.68-36.05,17.61,78.77,29.08,183.25-30.29,246.58-46.48,38.61-124.08,34.65-169.68-3.82-42.37-35.72-44.07-104.69-28.39-175.09-10.31-5.41-18.46-10.47-24.58-16.27S2096.08,2674.93,2104.16,2677.49Z" transform="translate(-765.69 -814.73)"/></g><path class="cls-2" d="M2684.85,2636.57c-11-14.71-21.84-29-34.2-41.56s-25.69-23.42-40-32c-28.65-17.32-61.89-23.05-93.33-16.38-31.47,6.5-60.88,24.29-83.67,48.76a188.6,188.6,0,0,0-28.78,41.35,203.53,203.53,0,0,0-17.74,47.65,262.48,262.48,0,0,0-6.28,50.79c-.13,17,1.64,33.79,6.09,49.21s11.83,29.24,22,39.71a69.68,69.68,0,0,0,38.06,19.4l5.47.82,5.59.21c3.72.38,7.5-.36,11.28-.44,7.48-1.21,15.13-2.48,22.34-5.49,14.66-5.34,27.91-14.6,39.15-26,5.79-5.59,10.62-12.12,15.26-18.88,2.23-3.44,4.2-7.07,6.37-10.64,1.7-3.79,3.56-7.56,5.21-11.45,6.52-15.66,10.14-33,12.18-51.18v0a2.74,2.74,0,0,1,5.37-.45,128.93,128.93,0,0,1,2.84,57.47,124.54,124.54,0,0,1-73.77,92.13c-9.55,4.39-19.91,7-30.4,8.85-5.34.4-10.64,1.35-16.06,1.07-2.7,0-5.41,0-8.11-.15l-8.12-.95a53.39,53.39,0,0,1-8.06-1.5c-2.67-.65-5.36-1.2-8-2.05-5.15-2-10.46-3.58-15.29-6.35-10.05-4.76-18.79-11.81-26.7-19.41-15.25-15.9-24.88-35.64-30.05-55.39s-6.64-39.83-6.11-59.32a295.8,295.8,0,0,1,7.86-57.75c9.82-37.67,27-74,53.35-103.76a201,201,0,0,1,45.53-38.59,165.69,165.69,0,0,1,56.51-22,143.89,143.89,0,0,1,115.43,27.89c15.83,12.1,28.86,27,39.46,42.88l7.47,12.2c2.32,4.15,4.24,8.51,6.35,12.71l3,6.37,2.52,6.59c1.71,4.37,3.18,8.82,4.75,13.18a2.71,2.71,0,0,1-4.71,2.56Z" transform="translate(-765.69 -814.73)"/><g class="cls-5"><path class="cls-6" d="M1842.8,2150.65c-26.14-139.22-178.36-166-292.54-151.21-142.69,18.45-285.78,136.14-277.24,269.74C1166.31,1967.31,1867.91,1815.11,1842.8,2150.65Z" transform="translate(-765.69 -814.73)"/></g><path class="cls-2" d="M2293.17,2840.21c-.67-6.18-.3-12.12,0-18.15s1.05-12.11,1.43-18.32c.88-12.47.91-25.24,1-39.19a2.06,2.06,0,0,1,2.07-2.05,2.08,2.08,0,0,1,1.55.71c9.34,10.82,15.54,23.92,19.49,37.7a90.41,90.41,0,0,1,3.69,21.22c.27,7.18-.2,14.45-2.48,21.38a13.76,13.76,0,0,1-26.74-2.81Z" transform="translate(-765.69 -814.73)"/><path class="cls-2" d="M2222.61,2851.34a83.38,83.38,0,0,1,.3-16.81c.5-5.55,1.45-11.15,2.18-16.88,1.6-11.49,2.55-23.28,4.09-36.19a2.07,2.07,0,0,1,2.29-1.84,2.1,2.1,0,0,1,1.42.79c8.16,10.49,13.27,22.79,16.52,35.58a87.51,87.51,0,0,1,2.8,19.57,54.46,54.46,0,0,1-2.88,19.53,13.79,13.79,0,0,1-26.67-3.26Z" transform="translate(-765.69 -814.73)"/><path class="cls-2" d="M2067.8,2627.24a198,198,0,0,1,10.61-26.8,232.56,232.56,0,0,1,14-25.39,248.85,248.85,0,0,1,36.75-45.81,195.47,195.47,0,0,1,23.07-19.53,154.14,154.14,0,0,1,26.92-15.83,130.83,130.83,0,0,1,31.26-9.87,102.64,102.64,0,0,1,34.45-.1,95.61,95.61,0,0,1,32.65,12,75.92,75.92,0,0,1,7.23,4.54l3.51,2.4c1.1.82,2,1.68,3.08,2.52,4,3.4,8.15,6.72,12,10.24,15.3,14.42,27.46,31.32,37.5,48.92,5.16,8.79,9.25,18,13.46,27.12l5.44,14c1.86,4.65,3.11,9.47,4.68,14.21s2.85,9.53,4,14.36,2.5,9.62,3.38,14.5l2.89,14.58,2.09,14.72a324.22,324.22,0,0,1,1.62,59.55l-1.36,15-2.3,15c-.79,5-2.28,10.23-3.43,15.34-1.37,5.11-3.27,10.15-4.93,15.22a135.83,135.83,0,0,1-37.31,53.69c-17.24,14.33-38.64,24.34-61.29,26.79-22.49,2.69-46-1.55-65.77-12.63-20.13-10.52-35.8-28-45.71-47.12a133,133,0,0,1-13.29-60.51,165.12,165.12,0,0,1,11.27-57.52,3.22,3.22,0,0,1,6.21.94v.07c1.34,18.87,3,37,7.1,54s10.14,32.65,18.84,45.79l3.5,4.71a31.67,31.67,0,0,0,3.65,4.49l3.79,4.29c1.35,1.33,2.8,2.55,4.17,3.84,2.64,2.71,5.87,4.63,8.73,7,3.24,1.81,6.21,4,9.65,5.39a75.6,75.6,0,0,0,10.21,4c1.74.56,3.56.84,5.32,1.3l2.65.64,2.72.37a69.41,69.41,0,0,0,21.77.11,79.17,79.17,0,0,0,21-6c6.79-2.83,12.8-7.21,18.7-11.65a99.27,99.27,0,0,0,26.53-36.88c1.27-3.77,2.83-7.42,4-11.28,1-4,2.22-7.68,3-11.88l2.29-12.6,1.48-12.85a287.51,287.51,0,0,0-.72-52.13,243,243,0,0,0-10.83-51.11,210.17,210.17,0,0,0-21.06-47,176.39,176.39,0,0,0-31.34-38.74c-3.08-2.66-6.3-5.11-9.41-7.7-.79-.63-1.58-1.33-2.35-1.89l-2.28-1.52a42.73,42.73,0,0,0-4.59-2.93,62.35,62.35,0,0,0-19.5-7.49c-13.51-2.71-28.56-.72-43.54,4.94-15.07,5.49-29.67,14.64-43.87,24.72-28.15,20.93-53.5,47.31-76.73,76.5a3.19,3.19,0,0,1-4.49.55A3.25,3.25,0,0,1,2067.8,2627.24Z" transform="translate(-765.69 -814.73)"/><path class="cls-2" d="M1996.67,2963.29a181.76,181.76,0,0,1,45.28-10.22,213.11,213.11,0,0,1,47.17,1.63,242.3,242.3,0,0,1,46.05,12.07,263.94,263.94,0,0,1,43.07,20.88,278.78,278.78,0,0,1,38.84,28.52c5.91,5.5,11.87,11,17.33,16.81s10.62,12,15.65,18.21a300.43,300.43,0,0,1,46.25,82.56,19.79,19.79,0,0,1-36.07,16.07l0-.11c-13.49-25.38-27.44-50-44.15-72.48a349.83,349.83,0,0,0-26.75-32.13c-9.7-9.87-19.83-19.52-31-28-11.26-8.28-22.88-16.3-35.38-22.87-12.54-6.39-25.46-12.38-39.06-16.63a227.81,227.81,0,0,0-42-9,224,224,0,0,0-43.85.17h-.09a2.84,2.84,0,0,1-1.26-5.49Z" transform="translate(-765.69 -814.73)"/><path class="cls-2" d="M2480.74,3071a345.16,345.16,0,0,1,13.05-94.48,302.36,302.36,0,0,1,16.64-45.39,293.69,293.69,0,0,1,23.54-42.37,279.37,279.37,0,0,1,65.52-70c12.94-9.38,26.48-17.87,40.93-24.4a207.2,207.2,0,0,1,44.69-14.51,2.84,2.84,0,0,1,1.79,5.34l-.07,0a266.76,266.76,0,0,0-38.66,22.59,258.68,258.68,0,0,0-33.27,28.73,291,291,0,0,0-50.28,70.37c-13.37,25.53-22.36,52.71-29.43,80.65s-11.16,56.66-15,85.86v.11a19.79,19.79,0,0,1-39.41-2.5Z" transform="translate(-765.69 -814.73)"/><path class="cls-2" d="M1413.63,2372.13c-46.32,0-90.85-15.62-122.26-43.55-31.59-28.07-48.55-66.74-49.06-111.83-.46-83.93,48.56-159.07,138-211.7,124-72.94,293-85.44,393.16-29,57,32.86,90.17,79.79,93.7,132.26,3.39,50.28-21.5,102.38-65,136a20.29,20.29,0,0,1-6.76,3.43c-108.54,31.41-191.42,28.65-218.58,26.53a944.1,944.1,0,0,1-133.36,94.16,20.45,20.45,0,0,1-8,2.63A206.29,206.29,0,0,1,1413.63,2372.13ZM1620,1981.44c-73.06,0-153.77,20.13-219.11,58.56-44.3,26.06-118.54,83.62-118,176.41.38,33.72,12.31,61.3,35.45,81.87,27,24,67.43,36.13,108.69,32.77,75.14-44.22,129.07-92.46,129.62-93a20.24,20.24,0,0,1,16.2-5c.85.1,87.69,10.68,207.58-23.27,31.08-25.42,48.78-63,46.36-98.82-2.64-39.1-28-73.6-73.34-99.76C1717.8,1991.16,1670.74,1981.44,1620,1981.44Zm169.85,246.74h0Z" transform="translate(-765.69 -814.73)"/><path class="cls-2" d="M1446.41,2131.19a29.68,29.68,0,0,1-17.37-53.77,257.3,257.3,0,0,1,146.48-48.08h.31a29.69,29.69,0,0,1,.29,59.37,197.46,197.46,0,0,0-112.39,36.89A29.57,29.57,0,0,1,1446.41,2131.19Z" transform="translate(-765.69 -814.73)"/><path class="cls-10" d="M1710,2325.93c-6.23,118.22-132.26,154.2-202.54,59.7-19.41-26-34.56-61.93-41.86-108.7,51.44-41.76,136-71.45,218.81-66.08C1704.46,2254.73,1711.76,2293.45,1710,2325.93Z" transform="translate(-765.69 -814.73)"/><g class="cls-4"><path class="cls-2" d="M1710,2325.93a650.45,650.45,0,0,0-121-2.48c-27.31,20.27-54.47,41.15-81.58,62.18-19.41-26-34.56-61.93-41.86-108.7,51.44-41.76,136-71.45,218.81-66.08C1704.46,2254.73,1711.76,2293.45,1710,2325.93Z" transform="translate(-765.69 -814.73)"/></g><path class="cls-2" d="M1604.77,2459.77a125,125,0,0,1-34.43-4.87c-63.93-18.27-110.56-83.64-124.73-174.87a20.25,20.25,0,0,1,7.25-18.85c59.38-48.18,150.77-75.88,232.88-70.57a20.3,20.3,0,0,1,17.14,11.83c39.28,86.21,36.86,164.63-6.63,215.15A120.08,120.08,0,0,1,1604.77,2459.77Zm-117.06-174.25c13.45,69,48,117.32,93.77,130.4,31,8.87,63.25-.62,84-24.78,30.51-35.45,32.32-94.87,5.35-160.59C1606,2229.22,1536.5,2250.09,1487.71,2285.52Z" transform="translate(-765.69 -814.73)"/><path class="cls-2" d="M1659.73,1922.29a20.3,20.3,0,0,1-19-27.23c31.57-86.53,87.65-100,142.38-106.42a20.27,20.27,0,0,1,4.7,40.27c-48.8,5.7-85.19,14.78-109,80A20.28,20.28,0,0,1,1659.73,1922.29Z" transform="translate(-765.69 -814.73)"/><path class="cls-7" d="M1541.15,2162.94l-174.22,115.18c-11.44,49.53,45.6,83.37,89.65,70.45,52-9.78,118.29-75.66,118.29-75.66s113.17,2.67,159.9-16.52c42.78-13.43,73.48-74.13,24.09-114.91Z" transform="translate(-765.69 -814.73)"/><g class="cls-4"><path class="cls-2" d="M1789.84,2228.18c-128,37-219.67,25-219.67,25s-56.75,51.13-136.82,97.65c-79.2,8.46-169.65-34.66-170.77-134.28a186.34,186.34,0,0,1,1.62-25.65c5,21,14.09,41,28.63,56.71,19.82,21.38,50.88,33.65,75.91,24.47,27.62,26,72.62,27.37,106.27,9.78s57-50.57,71.3-85.69c19,18.6,48.34,20.63,75,21.54,28.84,1,58.84,1.72,85.24-9.93s48-39.68,43.83-66c16.32,2.18,32.43-8.21,41.1-22.19s11.2-30.92,11.7-47.38a226.26,226.26,0,0,0-4.81-53.87C1876.4,2086.65,1851.57,2180.5,1789.84,2228.18Z" transform="translate(-765.69 -814.73)"/></g><g class="cls-5"><path class="cls-6" d="M1401.42,2666.52c76.32-93.27,233.55-85.65,300.5,14.54C1679.64,2512.18,1439.82,2496.27,1401.42,2666.52Z" transform="translate(-765.69 -814.73)"/></g><path class="cls-7" d="M1064.14,1690.17c-29.84,189.53-36.33,304.15-29.69,460.33,1.06,24.73-20.07,44.95-44.7,42.16-83.86-9.63-148.78-48-180.09-81.49-8.82-9.42-14.95-18.44-18.14-26.3-11.2-27.61-8.26-163.67,38.2-261.93,36.89-78,136.42-134.08,236.4-145.18C1065.46,1681.91,1064.8,1686.07,1064.14,1690.17Z" transform="translate(-765.69 -814.73)"/><path class="cls-2" d="M1138.78,2061.63a20.27,20.27,0,0,1-12.59-36.17c44.22-35,82.41-65.15,175.3-25.7a20.27,20.27,0,1,1-15.85,37.31c-70.77-30-93.34-12.2-134.3,20.19A20.15,20.15,0,0,1,1138.78,2061.63Z" transform="translate(-765.69 -814.73)"/><g class="cls-5"><path class="cls-6" d="M1066.12,1677.76c-.66,4.15-1.32,8.31-2,12.41-39,24.48-81.43,43.79-118,71.81-62.07,47.58-103.93,118.73-123.39,194.44-13,50.42-16.52,102.76-13.07,154.75-8.82-9.42-14.95-18.44-18.14-26.3-11.2-27.61-8.26-163.67,38.2-261.93C866.61,1745,966.14,1688.86,1066.12,1677.76Z" transform="translate(-765.69 -814.73)"/></g><path class="cls-2" d="M1576.79,2290.47a15,15,0,0,1-14.2-10.19L1496,2084a15,15,0,0,1,28.41-9.63L1591,2270.65a15,15,0,0,1-14.21,19.82Z" transform="translate(-765.69 -814.73)"/><g class="cls-5"><path class="cls-6" d="M1714.61,2666.89c2.19-58.16,31-114.79,76.65-150.86s107.46-50.9,164.54-39.52c-29.41-19.7-63.3-33.6-98.62-36s-72.06,7.48-99,30.5c-26.31,22.5-41.56,55.88-47.78,89.94S1706.3,2630,1714.61,2666.89Z" transform="translate(-765.69 -814.73)"/></g><path class="cls-2" d="M994.28,2213.17a60.24,60.24,0,0,1-6.82-.39c-107.55-12.32-195.21-72-214.75-120.31-14.67-36.21-8.41-178.6,38.7-278.2,38.4-81.2,139.86-144.15,252.47-156.63a20.27,20.27,0,0,1,22.25,23.35c-30.71,191.94-38.35,305.82-31.42,468.65a61,61,0,0,1-19.43,47.34A60.13,60.13,0,0,1,994.28,2213.17ZM1041.79,1702c-87.12,16.93-164.56,68-193.73,129.62-44.09,93.21-46.8,223.39-37.78,245.66,11.34,28,81.79,83.79,181.79,95.24a19.35,19.35,0,0,0,15.59-5.19,20.57,20.57,0,0,0,6.55-15.95C1007.57,1995.4,1014.54,1878.89,1041.79,1702Z" transform="translate(-765.69 -814.73)"/><path class="cls-2" d="M1489.77,2888.46a368.31,368.31,0,0,1,61.07,36.79,434.74,434.74,0,0,1,54.09,47.51c16.7,17.37,32.37,36,45.68,56.24s25,41.68,33.1,64.55a20.35,20.35,0,0,1-36.77,17l-.07-.14c-11.25-19.39-21.86-38.87-33.42-57.93s-23.38-38-36.54-56.31a662.73,662.73,0,0,0-42.34-53.13c-15-17.2-31.22-33.6-48.08-49.86a2.93,2.93,0,0,1,3.28-4.77Z" transform="translate(-765.69 -814.73)"/><path class="cls-2" d="M1397.91,2654c.75-4.11,1.56-8.25,2.53-12.37.5-2.05.92-4.15,1.48-6.2s1.31-4,2-6c1.44-4,2.62-8.16,4.34-12.09l5.5-11.73a160.79,160.79,0,0,1,31.82-42.32c26.29-25,63.68-39.52,100.87-39.55,37.33-.27,73.68,13.14,102.75,34.7a219.87,219.87,0,0,1,67.39,82.53c4.05,7.94,7,16.29,10.27,24.52,2.57,8.43,5.61,16.79,7.33,25.42.94,4.31,2.14,8.51,2.87,12.92l2.11,13.25c.89,4.26.87,9.3,1.14,14.05s-.14,9.49-.23,14.25a127.32,127.32,0,0,1-16.32,55.5c-2.29,4.39-5.34,8.37-8.16,12.44-3.21,3.8-6.18,7.82-9.82,11.23a111.22,111.22,0,0,1-23.36,18.38c-34.07,20.63-77.93,21.61-112,4.69a116.27,116.27,0,0,1-62.07-83.73,3.5,3.5,0,0,1,6.09-2.88l0,0c10.77,12.47,21.45,23.77,33.36,32.54a127.35,127.35,0,0,0,37,19.65,104.62,104.62,0,0,0,19.43,4.1c3.24.51,6.51.46,9.75.69a91.6,91.6,0,0,0,9.68-.51,84,84,0,0,0,35.73-12.36c21.33-13.43,34.91-36.61,37.42-63.28.12-3.33.72-6.77.5-10s.2-6.42-.48-10.14l-1.37-10.77c-.46-3.59-1.38-7.22-2.06-10.84-1.22-7.31-3.65-14.25-5.55-21.37-2.55-6.85-4.85-13.85-8.16-20.36a158.5,158.5,0,0,0-54.82-65.57,147.49,147.49,0,0,0-78.73-25.34,136.19,136.19,0,0,0-79,22.89,191.6,191.6,0,0,0-33.79,28.77c-10.42,11.25-19.67,24-29.22,37.35l-.12.16a3.43,3.43,0,0,1-6.17-2.62Z" transform="translate(-765.69 -814.73)"/><path class="cls-2" d="M1591.92,2765.54c10.17,9.48,18.12,20.48,25,32.06a115.87,115.87,0,0,1,9,18c2.35,6.26,4.29,12.69,4.7,19.49a13.8,13.8,0,0,1-25.91,7.39l-.1-.19c-3-5.63-4.83-11.56-6.5-17.57s-2.72-12.25-3.92-18.5c-2.27-12.56-4.57-25.27-5.72-39a2.06,2.06,0,0,1,1.87-2.24A2.13,2.13,0,0,1,1591.92,2765.54Z" transform="translate(-765.69 -814.73)"/><path class="cls-2" d="M1658.84,2738.55c11.1,8.94,19.81,20.16,27,32.29a102.39,102.39,0,0,1,9,19.09c2.23,6.66,3.9,13.55,3.88,20.7a13.77,13.77,0,0,1-26.33,5.59l-.13-.32c-2.61-5.82-4.08-11.79-5.53-17.83s-2.39-12.26-3.61-18.51c-2.33-12.56-5.17-25.24-7.57-39a2.06,2.06,0,0,1,1.66-2.39A2.11,2.11,0,0,1,1658.84,2738.55Z" transform="translate(-765.69 -814.73)"/><path class="cls-2" d="M1951.07,2474.4c-15.76-5.66-31-10.74-46.22-14.07a187.17,187.17,0,0,0-45-3.79,141.43,141.43,0,0,0-42.07,8.14,134.36,134.36,0,0,0-36.64,20.49,149.9,149.9,0,0,0-48.73,68.95c-9.74,27.47-10.51,58.09-4.33,87.19a214.21,214.21,0,0,0,14.65,42.46c1.55,3.41,3.43,6.57,5.1,9.86l2.58,4.91c.86,1.61,1.91,2.83,2.84,4.27L1756,2707l3.3,4a80.3,80.3,0,0,0,6.89,7.7c19.09,19.64,45.42,30,71.26,28.26a82.86,82.86,0,0,0,36.56-11.64c11.25-6.62,20.44-16.45,28.25-27.76s13.43-25,17.65-39.6,6.58-30.54,8.71-47.27v-.07a3.49,3.49,0,0,1,6.67-.94,137.83,137.83,0,0,1,11,51.41c.28,18-3,37-11.32,54.42-16,35.33-53.4,62-93.62,65.49a118.57,118.57,0,0,1-30-.86c-5-.56-9.8-2-14.68-3.05-4.71-1.57-9.59-2.78-14.09-4.91a133.34,133.34,0,0,1-47.79-33.57,120.69,120.69,0,0,1-9.25-11l-4.31-5.73-4-6.17c-1.25-2-2.73-4.13-3.76-6.18l-3-6.14c-2-4.1-4.1-8.17-5.88-12.31a278.59,278.59,0,0,1-16.5-51.33c-6.87-35.42-6.87-73,4.13-108.44,10.58-35.29,31.76-68.56,62.51-91.06,3.94-2.64,7.72-5.51,11.83-7.89s8.19-4.81,12.5-6.8,8.69-3.84,13.11-5.54l13.52-4.37a145.29,145.29,0,0,1,55.73-3.73,159.73,159.73,0,0,1,51.57,16l11.49,6.52c3.81,2.16,7.21,5,10.77,7.46a88.45,88.45,0,0,1,10.12,8.1c3.23,2.85,6.35,5.82,9.4,8.79a3.43,3.43,0,0,1-3.55,5.69Z" transform="translate(-765.69 -814.73)"/><path class="cls-2" d="M1830.48,2782.92l0,0a7.66,7.66,0,0,1-7.74-2.35l-4.11-4.69a53.84,53.84,0,0,1-9.35-16.17,92.45,92.45,0,0,1-4.76-18.14c-2-12.39-2.6-25-.09-37.65a2.08,2.08,0,0,1,2.46-1.64,2.14,2.14,0,0,1,1.31.87c7.23,10.38,13.11,20.37,19.19,30,3,4.84,6,9.55,8.59,14.43a70.76,70.76,0,0,1,6.36,15.34l-11.86-7h0a14,14,0,0,1,0,27Z" transform="translate(-765.69 -814.73)"/><path class="cls-2" d="M1869.26,2674.9c7.62,11.07,14.06,21.66,20.74,31.81,3.29,5.1,6.8,10,9.69,15.08s5.83,10.17,7.78,15.91l.12.37a13.78,13.78,0,0,1-22.94,14c-4.78-4.91-8.16-10.8-11-16.9a94.84,94.84,0,0,1-6.16-19.24c-2.9-13.16-4.07-26.69-2-40.21a2.06,2.06,0,0,1,2.35-1.73A2.14,2.14,0,0,1,1869.26,2674.9Z" transform="translate(-765.69 -814.73)"/><path class="cls-2" d="M1378.26,2260.89c.4,12.05,2.8,22.86,7.36,32.11a68.48,68.48,0,0,0,18.11,23,62.07,62.07,0,0,0,23.9,12.33,40.77,40.77,0,0,0,22.86-.52l2.09-.5a130.05,130.05,0,0,0,27.25-10.55,280.57,280.57,0,0,0,28.18-16.27c9.31-6.06,18.44-12.72,27.29-19.77,4.46-3.5,8.77-7.2,13-10.93s8.61-7.65,12.23-11.3a19.93,19.93,0,0,1,14.35-5.91h.44c12.83.15,26.25,0,39.35-.65s26.28-1.51,39.26-2.75,25.81-2.91,38.24-5c6.18-1.13,12.29-2.19,18.11-3.56a146.33,146.33,0,0,0,16.07-4.7l1.77-.64h0a42.27,42.27,0,0,0,19.4-12.35,52.51,52.51,0,0,0,11.8-22,60.25,60.25,0,0,0,.86-27.36c-1.79-9.89-6.32-20.1-12.36-31l-.07-.11a3.58,3.58,0,0,1,4.37-5.09,66.27,66.27,0,0,1,32,25.13,70.85,70.85,0,0,1,12,43,79.09,79.09,0,0,1-15.88,43.63,80.13,80.13,0,0,1-39,28.31l1.77-.64a133.55,133.55,0,0,1-22.47,7.23c-7.27,1.73-14.4,3.14-21.51,4.16-14.17,2.1-28.11,3.26-42,4s-27.65,1.06-41.39,1.22-27.32.13-41.4-.19l14.79-5.9c-9.35,9-18.21,17-27.68,25.08s-19,15.82-29.18,23.23a252.22,252.22,0,0,1-32.52,20.48c-11.69,6-24.47,11.19-39.24,13.71l2.09-.5c-16.46,4.58-33.79,2.64-48.21-3.29a84.21,84.21,0,0,1-35.53-27.5,78.49,78.49,0,0,1-15.7-40c-1.25-14.17,1.85-28.18,8.52-39.39a3.51,3.51,0,0,1,6.52,1.65Z" transform="translate(-765.69 -814.73)"/><path class="cls-2" d="M2021.21,2294.88" transform="translate(-765.69 -814.73)"/><path class="cls-2" d="M2518.39,2957.13l-1.07-.16A3.16,3.16,0,0,1,2518.39,2957.13Z" transform="translate(-765.69 -814.73)"/><g class="cls-4"><path class="cls-2" d="M1714.15,2652.26c15.83,36.85,51.75,64.31,91.46,69.95,18.16,2.57,37.7.55,52.93-9.67,15-10.06,24.17-26.79,30.64-43.66a228.29,228.29,0,0,0,14.45-67.37c1-16.76,15-30.39,31.78-29.53a52,52,0,0,0,19.68-2.74,53.81,53.81,0,0,0,34.57-40.81A70.92,70.92,0,0,1,1928.5,2626c8.47,40.2-3.15,85-32.9,113.31s-77.52,37.38-114,18.56C1743.69,2738.35,1724.33,2695.71,1714.15,2652.26Z" transform="translate(-765.69 -814.73)"/></g><g class="cls-4"><path class="cls-2" d="M1069.14,1629.31c-40.33,101.6-86.44,219.07-96.77,327.89-3.83,40.43-9.28,87.54-44.06,108.5C823.69,2108.06,784.1,1972,804.59,1890.42c-21.71,75.41-41.31,169.67,16.1,233.76,37,36.52,144.71,85.1,195.91,51.52,42.51-27.88,7.83-70,23.58-220.73C1051.09,1850.57,1053.23,1734.18,1069.14,1629.31Z" transform="translate(-765.69 -814.73)"/></g><ellipse class="cls-2" cx="2352.84" cy="1923.48" rx="104.33" ry="71.07" transform="translate(-1015.77 2677.34) rotate(-70.34)"/><ellipse class="cls-6" cx="2375.68" cy="1911.24" rx="30.47" ry="20.76" transform="translate(-989.09 2690.73) rotate(-70.34)"/><ellipse class="cls-2" cx="2800.77" cy="2031.42" rx="104.33" ry="71.07" transform="translate(-633.69 3418.66) rotate(-75.48)"/><ellipse class="cls-6" cx="2788.75" cy="2008.46" rx="30.47" ry="20.76" transform="translate(-620.47 3389.82) rotate(-75.48)"/></svg>